<?xml version="1.0" standalone="no"?>
<!DOCTYPE svg PUBLIC "-//W3C//DTD SVG 20010904//EN"
 "http://www.w3.org/TR/2001/REC-SVG-20010904/DTD/svg10.dtd">
<svg version="1.0" xmlns="http://www.w3.org/2000/svg"
 width="700.000000pt" height="700.000000pt" viewBox="0 0 700.000000 700.000000"
 preserveAspectRatio="xMidYMid meet">
<metadata>
Created by potrace 1.14, written by Peter Selinger 2001-2017
</metadata>
<g transform="translate(0.000000,700.000000) scale(0.100000,-0.100000)"
fill="#000000" stroke="none">
<path d="M3413 6576 c-413 -336 -685 -906 -687 -1441 0 -76 11 -225 19 -265 3
-14 7 -36 10 -50 24 -119 94 -311 138 -374 l20 -28 -24 7 c-111 34 -252 157
-311 270 -35 68 -98 249 -98 282 0 9 -2 14 -5 11 -12 -12 -17 -60 -20 -193 -6
-317 84 -532 403 -958 158 -210 227 -316 280 -427 111 -236 102 -410 -28 -538
-76 -75 -166 -117 -273 -127 -48 -5 -148 19 -213 50 -128 62 -230 178 -314
359 -134 287 -124 576 30 874 l28 52 -52 -37 c-299 -215 -486 -423 -619 -688
-109 -218 -162 -499 -135 -714 5 -36 11 -82 13 -101 2 -19 13 -70 25 -113 120
-453 452 -809 935 -1002 69 -27 285 -96 285 -90 0 1 -33 22 -72 45 -67 40
-157 100 -184 125 -7 5 -38 32 -70 60 -33 27 -86 80 -119 118 -33 38 -65 74
-70 81 -21 23 -113 174 -120 197 -4 13 -11 29 -15 34 -31 39 -94 246 -121 393
-23 131 -26 152 -34 332 l-6 135 39 -81 c207 -427 576 -684 987 -686 157 -1
327 41 441 108 116 68 234 220 293 379 96 257 100 589 10 890 -30 99 -61 167
-184 405 -127 244 -203 666 -175 970 l5 55 23 -85 c12 -47 25 -95 28 -108 13
-61 86 -267 123 -346 75 -162 160 -276 331 -446 86 -85 215 -210 286 -277 242
-228 399 -472 495 -768 29 -89 53 -204 64 -300 7 -60 7 -236 0 -283 -13 -98
-17 -120 -26 -157 -49 -194 -141 -377 -261 -517 -27 -32 -47 -58 -44 -58 13 0
254 152 321 203 141 106 248 206 350 328 104 125 195 332 223 509 9 61 9 293
-1 355 -4 28 -10 66 -13 85 -20 129 -58 258 -193 655 -101 294 -134 455 -135
645 -1 126 9 205 35 284 11 32 18 60 16 63 -9 9 -126 -97 -175 -160 -114 -143
-164 -299 -173 -539 -2 -38 -7 -68 -11 -68 -4 0 -19 17 -33 38 -168 251 -239
391 -290 577 -91 327 -159 485 -294 685 -81 120 -87 127 -297 345 -216 225
-275 308 -326 460 -20 61 -23 88 -22 220 0 128 4 165 27 250 14 55 30 112 36
128 6 15 9 27 7 27 -2 0 -39 -29 -83 -64z"/>
<path d="M4380 6298 c370 -163 627 -335 884 -593 393 -394 676 -946 751 -1465
3 -19 8 -48 10 -65 27 -172 27 -534 0 -735 -66 -479 -269 -947 -579 -1330 -78
-97 -280 -299 -376 -376 -356 -287 -730 -466 -1170 -559 -41 -9 -93 -18 -115
-21 -22 -3 -50 -7 -62 -10 -123 -26 -539 -26 -723 0 -80 12 -116 18 -180 32
-14 3 -37 7 -53 10 -149 27 -434 132 -629 231 -111 56 -371 218 -409 255 -8 7
-48 41 -89 75 -346 283 -637 693 -798 1128 -45 120 -100 313 -116 405 -3 19
-8 46 -11 60 -3 14 -8 48 -11 75 -3 28 -8 53 -10 56 -15 26 -23 407 -11 559 6
71 34 265 51 347 10 47 66 250 81 292 31 88 7 49 -38 -61 -55 -136 -100 -276
-134 -418 -27 -112 -27 -111 -43 -210 -5 -36 -12 -76 -15 -90 -26 -133 -26
-659 0 -785 3 -11 7 -36 9 -55 5 -31 28 -153 40 -205 75 -338 232 -696 440
-1005 133 -197 381 -466 569 -619 259 -209 544 -371 852 -484 107 -40 308 -97
388 -111 15 -3 35 -7 45 -10 9 -3 35 -7 57 -10 22 -4 51 -8 65 -11 26 -6 53
-9 170 -22 88 -9 444 -10 555 0 95 8 130 12 210 27 89 17 100 19 125 24 14 3
39 8 55 11 74 15 343 99 387 121 15 8 29 14 30 13 9 -2 172 69 243 106 136 73
193 106 305 180 586 389 1023 995 1205 1670 37 137 51 205 71 333 3 20 7 48
10 62 20 118 26 496 11 664 -42 463 -218 952 -488 1354 -62 93 -200 271 -248
322 -9 9 -37 39 -62 66 -84 89 -217 211 -319 290 -224 175 -497 330 -750 426
-138 53 -255 89 -180 56z"/>
<path d="M3891 3671 c104 -241 150 -444 152 -666 3 -271 -53 -470 -190 -678
-108 -163 -313 -321 -494 -380 -136 -45 -172 -51 -339 -51 -176 0 -198 3 -329
41 -98 28 -191 67 -281 118 -34 19 -64 35 -66 35 -6 0 83 -159 96 -170 3 -3
19 -25 35 -50 43 -64 210 -229 276 -272 106 -70 278 -145 369 -161 170 -31
200 -36 195 -27 -2 4 -26 15 -52 25 -109 41 -230 125 -293 205 l-32 40 89 -44
c110 -55 112 -56 213 -82 89 -24 273 -23 360 0 235 64 429 235 545 480 34 74
78 202 91 271 l8 40 13 -45 c97 -328 36 -557 -200 -761 -75 -65 -76 -75 -4
-29 26 17 50 30 53 30 24 0 203 152 259 221 98 118 171 278 201 444 12 64 8
295 -5 355 -31 139 -43 184 -70 257 -108 293 -304 590 -588 891 l-52 55 40
-92z"/>
</g>
</svg>
